<svg xmlns="http://www.w3.org/2000/svg" width="18" height="18" fill="none" viewBox="0 0 18 18">
  <g clip-path="url(#clip0)">
    <path fill="#F8F9FA" fill-rule="evenodd" d="M3.21 8.04a.562.562 0 00-.796 0l-2.25 2.25a.563.563 0 10.797.796l1.851-1.853 1.852 1.853a.563.563 0 00.797-.797L3.21 8.04zm14.626-1.126a.562.562 0 00-.797 0l-1.852 1.853-1.851-1.853a.563.563 0 10-.797.797l2.25 2.25a.564.564 0 00.797 0l2.25-2.25a.561.561 0 000-.797z" clip-rule="evenodd"/>
    <path fill="#F8F9FA" fill-rule="evenodd" d="M9 3.375a5.62 5.62 0 00-4.716 2.557.562.562 0 01-.942-.614A6.75 6.75 0 0115.75 9a.563.563 0 11-1.126 0 5.625 5.625 0 00-5.625-5.625H9zM2.812 8.437A.563.563 0 013.375 9a5.625 5.625 0 0010.341 3.068.563.563 0 11.942.614A6.75 6.75 0 012.25 9a.562.562 0 01.564-.563h-.002z" clip-rule="evenodd"/>
  </g>
  <defs>
    <clipPath id="clip0">
      <path fill="#fff" d="M0 0h18v18H0z"/>
    </clipPath>
  </defs>
</svg>
